<?xml version="1.0" encoding="UTF-8"?>
<svg version="1.1" xmlns="http://www.w3.org/2000/svg" width="512" height="512">
<path d="M0 0 C0.9714949 -0.00571014 1.94298981 -0.01142029 2.94392395 -0.01730347 C4.54063431 -0.01898026 4.54063431 -0.01898026 6.16960144 -0.02069092 C7.8529232 -0.02813828 7.8529232 -0.02813828 9.57025146 -0.03573608 C13.29111845 -0.05036817 17.01194281 -0.05716145 20.73283386 -0.06268311 C23.31492108 -0.06843365 25.89700828 -0.0741914 28.47909546 -0.07995605 C33.20430788 -0.08912474 37.92950321 -0.09542386 42.65472299 -0.09845281 C49.60333082 -0.10293177 56.55174176 -0.12047325 63.50028974 -0.1494534 C69.52362026 -0.17370033 75.54685785 -0.18139837 81.57024193 -0.18312836 C84.13030252 -0.18615697 86.69036225 -0.19419246 89.25039101 -0.20731354 C92.83168597 -0.22435873 96.41250118 -0.2224972 99.99382019 -0.21600342 C101.05222107 -0.2252182 102.11062195 -0.23443298 103.20109558 -0.243927 C109.58578613 -0.20764234 114.24978004 0.34914225 119.13908386 4.85919189 C119.61732605 5.44700439 120.09556824 6.03481689 120.58830261 6.64044189 C121.07943542 7.22825439 121.57056824 7.81606689 122.07658386 8.42169189 C124.68785841 12.16423522 124.41932731 15.99595717 124.41002369 20.35888195 C124.41237592 21.10283113 124.41472815 21.84678032 124.41715166 22.61327341 C124.4238508 25.12602141 124.42338316 27.63871781 124.42297363 30.151474 C124.42627169 31.96327459 124.42999713 33.77507444 124.43411511 35.58687335 C124.44414985 40.58134398 124.44785427 45.57580258 124.45050442 50.57028186 C124.45440309 55.95080571 124.46398171 61.33132001 124.47271729 66.71183777 C124.49249375 79.71333259 124.50254927 92.71482821 124.51144508 105.71633431 C124.51582592 111.83543955 124.52119324 117.95454391 124.52643394 124.07364845 C124.54344717 144.40875284 124.55794216 164.74385668 124.56518269 185.07896709 C124.56709265 190.35784086 124.56901297 195.63671463 124.57096863 200.91558838 C124.57145237 202.22766389 124.57193611 203.5397394 124.57243451 204.89157478 C124.58073782 226.15441196 124.60607941 247.41719294 124.63854931 268.68000557 C124.67159666 290.49841974 124.68962933 312.31680533 124.69282693 334.13524467 C124.69499414 346.39022894 124.70377378 358.64513125 124.7292881 370.90009117 C124.75096332 381.33531429 124.75906117 391.77043553 124.74932132 402.2056786 C124.74476746 407.53119592 124.74672598 412.85650292 124.76608276 418.18199158 C124.78364951 423.05704165 124.78276952 427.93172695 124.76718547 432.80678055 C124.76479952 434.57062138 124.76918386 436.33448704 124.78101412 438.09828981 C124.88506728 454.63589312 124.88506728 454.63589312 120.27580261 461.14044189 C115.78453461 464.71512459 112.24433113 466.26084044 106.55160522 466.28088379 C105.58011032 466.28659393 104.60861542 466.29230408 103.60768127 466.29818726 C102.01097092 466.29986404 102.01097092 466.29986404 100.38200378 466.30157471 C99.25978928 466.30653961 98.13757477 466.31150452 96.98135376 466.31661987 C93.26048677 466.33125196 89.53966242 466.33804524 85.81877136 466.34356689 C83.23668415 466.34931744 80.65459695 466.35507519 78.07250977 466.36083984 C73.34729735 466.37000853 68.62210202 466.37630765 63.89688224 466.3793366 C56.94827441 466.38381556 49.99986346 466.40135704 43.05131549 466.43033719 C37.02798496 466.45458412 31.00474737 466.46228216 24.9813633 466.46401215 C22.4213027 466.46704076 19.86124298 466.47507625 17.30121422 466.48819733 C13.71991926 466.50524252 10.13910405 466.50338099 6.55778503 466.49688721 C5.49938416 466.50610199 4.44098328 466.51531677 3.35050964 466.52481079 C-3.03418091 466.48852612 -7.69817482 465.93174154 -12.58747864 461.42169189 C-13.06572083 460.83387939 -13.54396301 460.24606689 -14.03669739 459.64044189 C-14.5278302 459.05262939 -15.01896301 458.46481689 -15.52497864 457.85919189 C-18.13767337 454.11461313 -17.86671755 450.28145573 -17.85562515 445.91641521 C-17.85767779 445.17186684 -17.85973042 444.42731846 -17.86184525 443.66020802 C-17.86753552 441.1454395 -17.86605552 438.63072539 -17.86463928 436.11595154 C-17.86722175 434.30272572 -17.87023458 432.48950048 -17.87364268 430.67627603 C-17.88172973 425.67794244 -17.8835032 420.67962319 -17.88424015 415.68128383 C-17.88608773 410.29670949 -17.89363354 404.91214265 -17.90037537 399.52757263 C-17.91397103 387.74673241 -17.91998525 375.96589558 -17.92438602 364.18504882 C-17.92714621 356.83315124 -17.93138313 349.48125498 -17.9358902 342.12935829 C-17.94808417 321.78567048 -17.95838343 301.44198374 -17.96176529 281.09829235 C-17.96198486 279.79565814 -17.96220442 278.49302392 -17.96243064 277.15091594 C-17.96264892 275.84511588 -17.9628672 274.53931582 -17.96309209 273.19394606 C-17.96353556 270.54777475 -17.96398212 267.90160344 -17.96443176 265.25543213 C-17.96465319 263.942832 -17.96487462 262.63023186 -17.96510276 261.27785597 C-17.96905224 240.00074571 -17.98651025 218.72366966 -18.00979128 197.44657262 C-18.03348477 175.61686776 -18.04596622 153.78718007 -18.04713321 131.95746213 C-18.04805106 119.69473331 -18.05383123 107.43204907 -18.07195282 95.1693325 C-18.08732675 84.72893941 -18.09249029 74.28860468 -18.08421472 63.84820243 C-18.08029868 58.51891805 -18.08128422 53.18975129 -18.09527206 47.86048126 C-18.1079538 42.98435358 -18.10686409 38.10843261 -18.09468135 33.23230544 C-18.09271439 31.46581088 -18.09584857 29.69930196 -18.10452572 27.93282761 C-18.11555798 25.53562966 -18.10817316 23.139169 -18.09613419 20.741992 C-18.10372938 20.05269963 -18.11132457 19.36340726 -18.11914992 18.65322724 C-18.06065875 13.27544102 -16.66896675 9.24874868 -13.00544739 5.27716064 C-12.41763489 4.79891846 -11.82982239 4.32067627 -11.22419739 3.82794189 C-10.63638489 3.33680908 -10.04857239 2.84567627 -9.44294739 2.33966064 C-6.35771275 0.18700829 -3.64029586 0.01281701 0 0 Z " fill="#000000" transform="translate(202.7241973876953,22.85955810546875)"/>
<path d="M0 0 C0.9784639 -0.0071553 1.9569278 -0.01431061 2.96504211 -0.02168274 C4.03729538 -0.02437164 5.10954865 -0.02706055 6.21429443 -0.02983093 C7.34465622 -0.03640213 8.47501801 -0.04297333 9.63963318 -0.04974365 C13.38815372 -0.06948799 17.13663418 -0.08114162 20.88519287 -0.09111023 C22.80417515 -0.09722352 22.80417515 -0.09722352 24.76192474 -0.10346031 C30.83438184 -0.12217364 36.90681883 -0.13673846 42.97929883 -0.14507228 C49.98002424 -0.15483958 56.98043303 -0.18114758 63.98104692 -0.22157317 C70.05136178 -0.255419 76.12154395 -0.26722115 82.19194794 -0.27127647 C84.77073056 -0.27614981 87.34950963 -0.28778489 89.92823029 -0.30631447 C93.53816467 -0.3306422 97.14727204 -0.32975196 100.75726318 -0.32279968 C102.3534977 -0.34201477 102.3534977 -0.34201477 103.98197937 -0.36161804 C110.29963651 -0.31729477 114.09994176 0.3996024 119.24456787 4.14717102 C123.15258291 8.46655606 124.36891451 10.85002839 124.37599564 16.60832596 C124.37983678 17.77554538 124.38367793 18.9427648 124.38763547 20.14535451 C124.38676899 21.43890379 124.3859025 22.73245306 124.38500977 24.06520081 C124.38759202 25.44445973 124.39060478 26.8237179 124.39401317 28.20297503 C124.40210299 32.00640362 124.40387384 35.80981336 124.40461063 39.61324954 C124.40645777 43.71016877 124.41400342 47.80707814 124.42074585 51.9039917 C124.43434414 60.86886491 124.44035632 69.83373365 124.44475651 78.79861546 C124.44751661 84.39383349 124.45175356 89.9890498 124.45626068 95.58426666 C124.4684557 111.06827308 124.47875429 126.5522781 124.48213577 142.03628922 C124.48246512 143.52364445 124.48246512 143.52364445 124.48280112 145.04104726 C124.4830194 146.03502588 124.48323768 147.0290045 124.48346257 148.05310369 C124.48390604 150.06736962 124.48435261 152.08163556 124.48480225 154.09590149 C124.48513439 155.59462811 124.48513439 155.59462811 124.48547325 157.12363204 C124.48942157 173.3148878 124.50687561 189.50609857 124.53016177 205.69733694 C124.55386287 222.31087334 124.56633707 238.92438715 124.56750369 255.53794074 C124.56842119 264.86974775 124.57419233 274.20149616 124.5923233 283.53328705 C124.6077076 291.47956932 124.61285468 299.42577488 124.6045852 307.37206921 C124.60067264 311.42746785 124.60163765 315.48271193 124.61564255 319.53809166 C124.62834544 323.25036479 124.62721597 326.96236664 124.61505184 330.6746392 C124.61215813 332.65444153 124.62405799 334.63424839 124.63647389 336.61401391 C124.62988405 337.79166432 124.62329421 338.96931473 124.61650467 340.18265152 C124.61710176 341.19693954 124.61769885 342.21122756 124.61831403 343.25625157 C124.01548402 347.91913024 122.26359928 351.18177284 118.86956787 354.39717102 C114.75249116 357.14188883 111.28134003 358.39468053 106.33128357 358.41459656 C105.36834381 358.42312653 104.40540405 358.43165649 103.4132843 358.44044495 C102.36849411 358.43953857 101.32370392 358.4386322 100.24725342 358.43769836 C99.13771301 358.44441559 98.02817261 358.45113281 96.88500977 358.45805359 C93.21705649 358.47705123 89.54928604 358.48095877 85.88128662 358.48310852 C83.32926864 358.48953541 80.77725141 358.49626368 78.22523499 358.50328064 C72.87464391 358.51525798 67.52412086 358.51904671 62.17352295 358.51777649 C56.00284307 358.51657596 49.83251345 358.53766343 43.66192216 358.56926382 C37.71121307 358.59864443 31.76061018 358.60575049 25.80982399 358.60455704 C23.28490583 358.60691463 20.75998498 358.61574701 18.23511314 358.63122177 C14.69980352 358.65085974 11.16539058 358.6450512 7.63006592 358.63301086 C6.59134842 358.64424988 5.55263092 358.65548889 4.48243713 358.66706848 C-3.07056656 358.60184095 -8.69409851 357.20850464 -14.13043213 351.77217102 C-17.0214005 347.10214519 -18.00513253 342.76151252 -18.00990772 337.30873299 C-18.01573992 336.15916654 -18.02157211 335.00960009 -18.02758104 333.82519829 C-18.02380171 332.57190126 -18.02002239 331.31860422 -18.01612854 330.02732849 C-18.01915039 328.67491504 -18.02304004 327.32250329 -18.02772111 325.97009456 C-18.03800561 322.25934984 -18.03581814 318.54870169 -18.03154051 314.83794904 C-18.0290741 310.83376348 -18.03808641 306.82960123 -18.045578 302.82542419 C-18.0583295 294.98287353 -18.06011812 287.1403571 -18.05777774 279.29779781 C-18.05599489 272.9231005 -18.05774352 266.54841357 -18.06200218 260.1737175 C-18.06289497 258.81292385 -18.06289497 258.81292385 -18.06380579 257.42463943 C-18.06501753 255.58167848 -18.06623167 253.73871753 -18.06744816 251.89575659 C-18.07832549 234.6109715 -18.07616032 217.32620592 -18.07006332 200.04141973 C-18.06489427 184.23005739 -18.07614893 168.41875666 -18.09516153 152.60740651 C-18.11453535 136.37115392 -18.12279672 120.13493049 -18.11903828 103.89866626 C-18.11712551 94.78371775 -18.11962121 85.66882168 -18.13375282 76.5538826 C-18.14566179 68.79403099 -18.14707697 61.0342641 -18.13496266 53.27441134 C-18.1290705 49.31595261 -18.12798379 45.35764888 -18.13996506 41.39920044 C-18.15081208 37.7733266 -18.14773474 34.14773738 -18.13370337 30.52187692 C-18.12980061 28.59345577 -18.14061323 26.66502204 -18.15200025 24.73663056 C-18.10666378 17.4718797 -17.8997296 10.91318185 -13.03668213 5.08857727 C-12.44886963 4.63353821 -11.86105713 4.17849915 -11.25543213 3.70967102 C-10.37371338 3.00004211 -10.37371338 3.00004211 -9.47418213 2.27607727 C-6.34618602 0.22155256 -3.63253698 0.01824284 0 0 Z " fill="#000000" transform="translate(387.75543212890625,130.8528289794922)"/>
<path d="M0 0 C0.97990906 -0.00571014 1.95981812 -0.01142029 2.96942139 -0.01730347 C4.0432457 -0.01842133 5.11707001 -0.01953918 6.22343445 -0.02069092 C7.92138657 -0.02813828 7.92138657 -0.02813828 9.65364075 -0.03573608 C13.4069733 -0.05036859 17.16026358 -0.05716152 20.91362 -0.06268311 C23.51812746 -0.06843361 26.1226349 -0.07419136 28.72714233 -0.07995605 C33.49340123 -0.0895266 38.25965098 -0.0954239 43.0259183 -0.09845281 C50.03508594 -0.10293182 57.04405839 -0.12047354 64.05316669 -0.1494534 C70.12882128 -0.17369948 76.20439546 -0.18139834 82.28009605 -0.18312836 C84.86248525 -0.18615708 87.44487358 -0.19419296 90.02723122 -0.20731354 C93.6396579 -0.22435761 97.25160893 -0.22249747 100.86405945 -0.21600342 C101.93181107 -0.2252182 102.99956268 -0.23443298 104.09967041 -0.243927 C110.51301298 -0.20778979 115.11416535 0.37694048 120.10112 4.78887939 C120.81848328 5.64352783 120.81848328 5.64352783 121.55033875 6.51544189 C122.04147156 7.08005127 122.53260437 7.64466064 123.03862 8.22637939 C125.97617317 12.91498217 125.38381699 18.69842903 125.37828064 24.03993225 C125.38125176 24.93694137 125.38422288 25.83395048 125.38728404 26.7581417 C125.39595651 29.76424666 125.39747806 32.77031174 125.39897156 35.77642822 C125.40360071 37.93164657 125.4086255 40.08686411 125.41401672 42.24208069 C125.42713224 48.09750661 125.43358389 53.95292107 125.43802738 59.80835938 C125.44095911 63.46669497 125.44506409 67.12502743 125.44953156 70.78336143 C125.46320346 82.22988012 125.47287196 93.67639166 125.47673345 105.12291795 C125.48121537 118.33578136 125.49877083 131.54854137 125.52773404 144.76137334 C125.5493469 154.97552954 125.5594375 165.18965665 125.56077456 175.40383548 C125.56182275 181.50403899 125.56773382 187.60414528 125.58559418 193.70432472 C125.60206819 199.44251147 125.60423353 205.18052782 125.59545517 210.91872978 C125.59468448 213.02299073 125.59903175 215.12726083 125.60891342 217.23149872 C125.62162742 220.10786868 125.61575894 222.98363461 125.60533142 225.86000061 C125.61741603 227.10394355 125.61741603 227.10394355 125.62974477 228.37301666 C125.58065789 234.17711376 124.89297736 240.12240075 120.89210629 244.67010814 C116.46924398 248.5610074 112.17005103 250.3843487 106.32455444 250.40786743 C105.36161469 250.4163974 104.39867493 250.42492737 103.40655518 250.43371582 C102.36176498 250.43280945 101.31697479 250.43190308 100.24052429 250.43096924 C98.57621368 250.44104507 98.57621368 250.44104507 96.87828064 250.45132446 C93.21032736 250.4703221 89.54255691 250.47422965 85.8745575 250.47637939 C83.32253952 250.48280628 80.77052228 250.48953456 78.21850586 250.49655151 C72.86791478 250.50852886 67.51739174 250.51231758 62.16679382 250.51104736 C55.99611394 250.50984683 49.82578433 250.5309343 43.65519303 250.56253469 C37.70448394 250.5919153 31.75388105 250.59902137 25.80309486 250.59782791 C23.2781767 250.60018551 20.75325586 250.60901789 18.22838402 250.62449265 C14.6930744 250.64413062 11.15866145 250.63832208 7.62333679 250.62628174 C6.58461929 250.63752075 5.54590179 250.64875977 4.47570801 250.66033936 C-1.77029586 250.60639904 -6.56820986 249.7655039 -11.76216125 246.14044189 C-16.8305756 240.81210886 -16.91082818 236.26475582 -16.90933228 229.20225525 C-16.91300896 228.27695898 -16.91668565 227.35166272 -16.92047375 226.39832717 C-16.93152432 223.28460921 -16.93535674 220.1709246 -16.93916321 217.05718994 C-16.94542674 214.8300567 -16.95207344 212.6029245 -16.95907593 210.37579346 C-16.97649393 204.31584779 -16.98703953 198.25591001 -16.99528146 192.1959455 C-17.00042911 188.41200418 -17.0065049 184.62806533 -17.01279259 180.84412575 C-17.02966177 170.3672694 -17.04429739 159.8904142 -17.05154133 149.41354656 C-17.05345121 146.69531439 -17.05537154 143.97708223 -17.05732727 141.2588501 C-17.05781101 140.58325091 -17.05829475 139.90765173 -17.05879315 139.21157984 C-17.06709538 128.2647091 -17.09243645 117.31794757 -17.12490795 106.37112453 C-17.15797504 95.13189777 -17.17565689 83.89272447 -17.17918557 72.65344268 C-17.18153949 66.34308921 -17.19054476 60.03290841 -17.21564674 53.72260094 C-17.23887511 47.787428 -17.24318168 41.85254207 -17.23288536 35.91733551 C-17.23238864 33.73805348 -17.23874889 31.55875758 -17.25244141 29.37951851 C-17.27008124 26.40585919 -17.26309285 23.43323875 -17.24990845 20.45957947 C-17.26087769 19.59585761 -17.27184694 18.73213576 -17.28314859 17.84224051 C-17.22544507 12.45695765 -16.32197979 9.42305349 -12.76216125 5.14044189 C-8.57243555 1.35946992 -5.60228614 0.01955425 0 0 Z " fill="#000000" transform="translate(16.762161254882813,238.85955810546875)"/>
</svg>
